<svg width="14" height="13" viewBox="0 0 14 13" fill="none" xmlns="http://www.w3.org/2000/svg">
<path d="M4.45117 0.0625C3.79492 0.0625 3.18555 0.226563 2.62305 0.554688C2.07227 0.882812 1.63281 1.32812 1.30469 1.89062C0.976562 2.44141 0.8125 3.04492 0.8125 3.70117V8.79883C0.8125 9.45508 0.976562 10.0645 1.30469 10.627C1.63281 11.1777 2.07227 11.6172 2.62305 11.9453C3.18555 12.2734 3.79492 12.4375 4.45117 12.4375H9.54883C10.2051 12.4375 10.8086 12.2734 11.3594 11.9453C11.9219 11.6172 12.3672 11.1777 12.6953 10.627C13.0234 10.0645 13.1875 9.45508 13.1875 8.79883V3.70117C13.1875 3.04492 13.0234 2.44141 12.6953 1.89062C12.3672 1.32812 11.9219 0.882812 11.3594 0.554688C10.8086 0.226563 10.2051 0.0625 9.54883 0.0625H4.45117ZM4.45117 1.1875H9.54883C10.0059 1.1875 10.4277 1.29883 10.8145 1.52148C11.2012 1.74414 11.5059 2.04883 11.7285 2.43555C11.9512 2.82227 12.0625 3.24414 12.0625 3.70117V8.79883C12.0625 9.25586 11.9512 9.67773 11.7285 10.0645C11.5059 10.4512 11.2012 10.7559 10.8145 10.9785C10.4277 11.2012 10.0059 11.3125 9.54883 11.3125H4.45117C3.99414 11.3125 3.57227 11.2012 3.18555 10.9785C2.79883 10.7559 2.49414 10.4512 2.27148 10.0645C2.04883 9.67773 1.9375 9.25586 1.9375 8.79883V3.70117C1.9375 3.24414 2.04883 2.82227 2.27148 2.43555C2.49414 2.04883 2.79883 1.74414 3.18555 1.52148C3.57227 1.29883 3.99414 1.1875 4.45117 1.1875ZM10.3223 2.41797C10.1816 2.41797 10.0586 2.4707 9.95312 2.57617C9.85938 2.66992 9.8125 2.78711 9.8125 2.92773C9.8125 3.06836 9.85938 3.19141 9.95312 3.29688C10.0586 3.39063 10.1816 3.4375 10.3223 3.4375C10.4629 3.4375 10.5801 3.39063 10.6738 3.29688C10.7793 3.19141 10.832 3.06836 10.832 2.92773C10.832 2.78711 10.7793 2.66992 10.6738 2.57617C10.5801 2.4707 10.4629 2.41797 10.3223 2.41797ZM7 2.875C6.39062 2.875 5.82812 3.02734 5.3125 3.33203C4.79688 3.63672 4.38672 4.04688 4.08203 4.5625C3.77734 5.07812 3.625 5.64062 3.625 6.25C3.625 6.85938 3.77734 7.42188 4.08203 7.9375C4.38672 8.45312 4.79688 8.86328 5.3125 9.16797C5.82812 9.47266 6.39062 9.625 7 9.625C7.60938 9.625 8.17188 9.47266 8.6875 9.16797C9.20312 8.86328 9.61328 8.45312 9.91797 7.9375C10.2227 7.42188 10.375 6.85938 10.375 6.25C10.375 5.64062 10.2227 5.07812 9.91797 4.5625C9.61328 4.04688 9.20312 3.63672 8.6875 3.33203C8.17188 3.02734 7.60938 2.875 7 2.875ZM7 4C7.41016 4 7.78516 4.09961 8.125 4.29883C8.47656 4.49805 8.75195 4.77344 8.95117 5.125C9.15039 5.46484 9.25 5.83984 9.25 6.25C9.25 6.66016 9.15039 7.04102 8.95117 7.39258C8.75195 7.73242 8.47656 8.00195 8.125 8.20117C7.78516 8.40039 7.41016 8.5 7 8.5C6.58984 8.5 6.20898 8.40039 5.85742 8.20117C5.51758 8.00195 5.24805 7.73242 5.04883 7.39258C4.84961 7.04102 4.75 6.66016 4.75 6.25C4.75 5.83984 4.84961 5.46484 5.04883 5.125C5.24805 4.77344 5.51758 4.49805 5.85742 4.29883C6.20898 4.09961 6.58984 4 7 4Z" fill="#030A15"/>
</svg>
