<svg width="13" height="13" viewBox="0 0 13 13" fill="none" xmlns="http://www.w3.org/2000/svg">
<path d="M1.86914 0.5C1.45898 0.5 1.10742 0.646484 0.814453 0.939453C0.521484 1.2207 0.375 1.57227 0.375 1.99414C0.375 2.4043 0.521484 2.75586 0.814453 3.04883C1.10742 3.3418 1.45312 3.48828 1.85156 3.48828C2.26172 3.48828 2.61328 3.3418 2.90625 3.04883C3.19922 2.75586 3.3457 2.4043 3.3457 1.99414C3.3457 1.58398 3.19922 1.23242 2.90625 0.939453C2.625 0.646484 2.2793 0.5 1.86914 0.5ZM9.11133 4.4375C8.53711 4.4375 8.03906 4.57227 7.61719 4.8418C7.27734 5.06445 7.00781 5.36328 6.80859 5.73828H6.77344V4.61328H4.3125V12.875H6.87891V8.7793C6.87891 8.33398 6.90234 7.99414 6.94922 7.75977C7.01953 7.4082 7.14844 7.14453 7.33594 6.96875C7.55859 6.76953 7.875 6.66992 8.28516 6.66992C8.69531 6.66992 9.00586 6.78711 9.2168 7.02148C9.39258 7.20898 9.50977 7.49023 9.56836 7.86523C9.60352 8.08789 9.62109 8.41602 9.62109 8.84961V12.875H12.1875V8.33984C12.1875 7.50781 12.1113 6.83984 11.959 6.33594C11.7832 5.72656 11.4844 5.26367 11.0625 4.94727C10.5938 4.60742 9.94336 4.4375 9.11133 4.4375ZM0.585938 4.61328V12.875H3.15234V4.61328H0.585938Z" fill="#030A15"/>
</svg>
