<svg width="14" height="12" viewBox="0 0 14 12" fill="none" xmlns="http://www.w3.org/2000/svg">
<path d="M13.75 2.06641C13.2461 2.28906 12.7188 2.43555 12.168 2.50586C12.4492 2.33008 12.6953 2.11328 12.9062 1.85547C13.1172 1.58594 13.2754 1.28711 13.3809 0.958984C12.8301 1.28711 12.2441 1.51562 11.623 1.64453C11.3652 1.36328 11.0605 1.14648 10.709 0.994141C10.3574 0.841797 9.98828 0.765625 9.60156 0.765625C9.09766 0.765625 8.63477 0.888672 8.21289 1.13477C7.79102 1.38086 7.45117 1.7207 7.19336 2.1543C6.94727 2.57617 6.82422 3.0332 6.82422 3.52539C6.82422 3.74805 6.84766 3.95898 6.89453 4.1582C5.76953 4.11133 4.70312 3.82422 3.69531 3.29688C2.72266 2.80469 1.88477 2.13086 1.18164 1.27539C0.935547 1.69727 0.8125 2.16016 0.8125 2.66406C0.8125 3.13281 0.923828 3.57227 1.14648 3.98242C1.36914 4.39258 1.66797 4.7207 2.04297 4.9668C1.59766 4.95508 1.18164 4.83789 0.794922 4.61523V4.65039C0.794922 5.31836 1.00586 5.91016 1.42773 6.42578C1.84961 6.92969 2.37695 7.24609 3.00977 7.375C2.77539 7.43359 2.53516 7.46289 2.28906 7.46289C2.11328 7.46289 1.9375 7.45117 1.76172 7.42773C1.9375 7.97852 2.25977 8.43555 2.72852 8.79883C3.20898 9.15039 3.74805 9.33203 4.3457 9.34375C3.86523 9.71875 3.33203 10.0117 2.74609 10.2227C2.16016 10.4336 1.55078 10.5391 0.917969 10.5391C0.695312 10.5273 0.472656 10.5098 0.25 10.4863C0.871094 10.8848 1.53906 11.1895 2.25391 11.4004C2.98047 11.623 3.72461 11.7344 4.48633 11.7344C5.7168 11.7344 6.84766 11.4941 7.87891 11.0137C8.81641 10.5801 9.63672 9.96484 10.3398 9.16797C10.9961 8.42969 11.5059 7.58594 11.8691 6.63672C12.209 5.71094 12.3789 4.78516 12.3789 3.85938L12.3613 3.49023C12.9121 3.10352 13.375 2.62891 13.75 2.06641Z" fill="#030A15"/>
</svg>
